<svg width="111" height="111" viewBox="0 0 111 111" fill="none" xmlns="http://www.w3.org/2000/svg">
<rect width="111" height="111" rx="20" transform="matrix(-1 0 0 1 111 0)" fill="url(#paint0_radial_10_98)"/>
<path d="M56.0117 42.5234C48.5586 42.5234 42.5469 48.5352 42.5469 55.9883C42.5469 63.4414 48.5586 69.4531 56.0117 69.4531C63.4648 69.4531 69.4766 63.4414 69.4766 55.9883C69.4766 48.5352 63.4648 42.5234 56.0117 42.5234ZM56.0117 64.7422C51.1953 64.7422 47.2578 60.8164 47.2578 55.9883C47.2578 51.1602 51.1836 47.2344 56.0117 47.2344C60.8398 47.2344 64.7656 51.1602 64.7656 55.9883C64.7656 60.8164 60.8281 64.7422 56.0117 64.7422ZM73.168 41.9727C73.168 43.7188 71.7617 45.1133 70.0273 45.1133C68.2813 45.1133 66.8867 43.707 66.8867 41.9727C66.8867 40.2383 68.293 38.832 70.0273 38.832C71.7617 38.832 73.168 40.2383 73.168 41.9727ZM82.0859 45.1602C81.8867 40.9531 80.9258 37.2266 77.8438 34.1562C74.7734 31.0859 71.0469 30.125 66.8398 29.9141C62.5039 29.668 49.5078 29.668 45.1719 29.9141C40.9766 30.1133 37.25 31.0742 34.168 34.1445C31.0859 37.2148 30.1367 40.9414 29.9258 45.1484C29.6797 49.4844 29.6797 62.4805 29.9258 66.8164C30.125 71.0234 31.0859 74.75 34.168 77.8203C37.25 80.8906 40.9648 81.8516 45.1719 82.0625C49.5078 82.3086 62.5039 82.3086 66.8398 82.0625C71.0469 81.8633 74.7734 80.9023 77.8438 77.8203C80.9141 74.75 81.875 71.0234 82.0859 66.8164C82.332 62.4805 82.332 49.4961 82.0859 45.1602ZM76.4844 71.4688C75.5703 73.7656 73.8008 75.5352 71.4922 76.4609C68.0352 77.832 59.832 77.5156 56.0117 77.5156C52.1914 77.5156 43.9766 77.8203 40.5312 76.4609C38.2344 75.5469 36.4648 73.7773 35.5391 71.4688C34.168 68.0117 34.4844 59.8086 34.4844 55.9883C34.4844 52.168 34.1797 43.9531 35.5391 40.5078C36.4531 38.2109 38.2227 36.4414 40.5312 35.5156C43.9883 34.1445 52.1914 34.4609 56.0117 34.4609C59.832 34.4609 68.0469 34.1562 71.4922 35.5156C73.7891 36.4297 75.5586 38.1992 76.4844 40.5078C77.8555 43.9648 77.5391 52.168 77.5391 55.9883C77.5391 59.8086 77.8555 68.0234 76.4844 71.4688Z" fill="white"/>
<defs>
<radialGradient id="paint0_radial_10_98" cx="0" cy="0" r="1" gradientUnits="userSpaceOnUse" gradientTransform="translate(37.8043 -27.6159) rotate(62.1639) scale(156.755 268.896)">
<stop stop-color="#7833F9"/>
<stop offset="0.46875" stop-color="#D901B7"/>
<stop offset="0.801061" stop-color="#FB007B"/>
<stop offset="1" stop-color="#FFBF00"/>
</radialGradient>
</defs>
</svg>
