<svg width="111" height="111" viewBox="0 0 111 111" fill="none" xmlns="http://www.w3.org/2000/svg">
<rect width="111" height="111" rx="20" transform="matrix(-1 0 0 1 111 0)" fill="#0077FF"/>
<path d="M81.8246 41.3341C82.2036 40.0537 81.8246 39.1113 80.0013 39.1113H73.9682C72.4317 39.1113 71.7249 39.9205 71.346 40.8219C71.346 40.8219 68.273 48.3096 63.93 53.1648C62.5267 54.5681 61.8814 55.0188 61.1131 55.0188C60.7341 55.0188 60.1503 54.5681 60.1503 53.2877V41.3341C60.1503 39.7976 59.7201 39.1113 58.4499 39.1113H48.9649C48.002 39.1113 47.4284 39.8283 47.4284 40.4941C47.4284 41.9487 49.5999 42.2867 49.8253 46.3839V55.2749C49.8253 57.2211 49.477 57.5796 48.7088 57.5796C46.6602 57.5796 41.6821 50.0612 38.7321 41.457C38.138 39.7874 37.5541 39.1113 36.0074 39.1113H29.9742C28.2534 39.1113 27.9052 39.9205 27.9052 40.8219C27.9052 42.4198 29.9538 50.3582 37.4414 60.8471C42.4298 68.007 49.4565 71.8891 55.8482 71.8891C59.6894 71.8891 60.1605 71.0287 60.1605 69.5434C60.1605 62.7011 59.8123 62.0558 61.738 62.0558C62.6291 62.0558 64.1656 62.5065 67.7506 65.9584C71.8479 70.0556 72.5239 71.8891 74.8183 71.8891H80.8515C82.5723 71.8891 83.443 71.0287 82.9411 69.3283C81.7939 65.7535 74.0399 58.399 73.6916 57.9073C72.8005 56.7601 73.0565 56.248 73.6916 55.2237C73.7019 55.2134 81.0666 44.8474 81.8246 41.3341Z" fill="white"/>
</svg>
